<svg width="49" height="49" xmlns="http://www.w3.org/2000/svg" xmlns:xlink="http://www.w3.org/1999/xlink" xml:space="preserve" overflow="hidden"><g transform="translate(-1162 -110)"><path d="M1205.64 148.587 1199.26 142.207C1198.39 141.34 1197.22 141.033 1196.1 141.238L1193.85 138.992C1195.84 136.44 1197.01 133.173 1197.01 129.702 1197.01 121.28 1190.12 114.39 1181.7 114.39 1173.28 114.39 1166.39 121.28 1166.39 129.702 1166.39 138.124 1173.28 145.015 1181.7 145.015 1185.17 145.015 1188.39 143.841 1190.99 141.85L1193.24 144.096C1193.03 145.219 1193.34 146.393 1194.21 147.26L1200.59 153.641C1201.3 154.355 1202.22 154.712 1203.14 154.712 1204.06 154.712 1204.98 154.355 1205.69 153.641 1207.02 152.211 1207.02 149.966 1205.64 148.587ZM1181.65 141.901C1174.91 141.901 1169.4 136.389 1169.4 129.651 1169.4 122.914 1174.91 117.401 1181.65 117.401 1188.39 117.401 1193.9 122.914 1193.9 129.651 1193.9 136.389 1188.39 141.901 1181.65 141.901Z"/></g></svg>